<svg width="197" height="48" viewBox="0 0 197 48" fill="none" xmlns="http://www.w3.org/2000/svg">
<path d="M30.4289 2H13.5711L0 15.5711V32.4289L13.5711 46H30.4289L44 32.4289V15.5711L30.4289 2ZM15.9036 32.641L7.20966 23.947L15.9036 15.253C19.1904 11.9663 24.5976 11.9663 27.8844 15.253L36.5783 23.947L27.8844 32.641C24.5976 35.9277 19.2964 35.9277 15.9036 32.641Z" fill="#EAEAEB"/>
<path d="M63.3395 34.2401C66.0395 34.2401 68.2595 32.8601 68.9495 30.7901V34.0001H72.9395V25.9001C72.9395 24.0701 71.4995 22.5101 69.5495 22.5101H63.8495V25.9001H67.8995C68.4095 25.9001 68.7395 26.2301 68.7395 26.7401C68.7395 28.6901 66.1595 30.5801 63.5495 30.5801C60.0695 30.5801 57.3095 27.8501 57.3095 23.5001C57.3095 19.1501 60.0695 16.6301 63.6395 16.6301C66.3395 16.6301 68.1995 18.1001 68.5295 20.3501H72.9995C72.7295 15.8501 68.9495 12.7601 63.6695 12.7601C58.1195 12.7601 53.0195 16.3301 53.0195 23.5001C53.0195 30.6701 57.9695 34.2401 63.3395 34.2401Z" fill="#EAEAEB"/>
<path d="M74.6523 34.0001H78.8223V12.3101H74.6523V34.0001Z" fill="#EAEAEB"/>
<path d="M87.8174 34.2401C92.4674 34.2401 95.7974 30.9401 95.7974 26.4401C95.7974 21.9401 92.4674 18.6401 87.8174 18.6401C83.1674 18.6401 79.8374 21.9401 79.8374 26.4401C79.8374 30.9401 83.1674 34.2401 87.8174 34.2401ZM87.8174 30.6401C85.5674 30.6401 84.0374 28.9301 84.0374 26.4401C84.0374 23.9201 85.5674 22.2101 87.8174 22.2101C90.0674 22.2101 91.5974 23.9201 91.5974 26.4401C91.5974 28.9301 90.0674 30.6401 87.8174 30.6401Z" fill="#EAEAEB"/>
<path d="M105.128 34.2401C109.598 34.2401 112.268 31.1501 112.268 26.4401C112.268 21.7301 109.598 18.6401 105.188 18.6401C103.298 18.6401 101.828 19.3601 100.988 20.4701V12.3101H96.8184V34.0001H100.988V32.3501C101.828 33.5201 103.388 34.2401 105.128 34.2401ZM104.468 30.6401C102.218 30.6401 100.748 28.9601 100.748 26.4401C100.748 23.8901 102.218 22.2101 104.468 22.2101C106.658 22.2101 108.158 23.8901 108.158 26.4401C108.158 28.9601 106.658 30.6401 104.468 30.6401Z" fill="#EAEAEB"/>
<path d="M119.249 18.6401C115.109 18.6401 112.649 21.0701 112.469 24.1001H116.189C116.249 22.8401 117.179 21.7001 119.009 21.7001C120.719 21.7001 121.709 22.5701 121.709 23.8301C121.709 24.4601 121.319 24.9401 120.569 24.9401H118.019C114.719 24.9401 112.499 26.7401 112.499 29.7101C112.499 32.2901 114.509 34.2401 117.449 34.2401C119.519 34.2401 121.199 33.3101 121.709 31.9001V34.0001H125.849V24.2801C125.849 20.8601 123.059 18.6401 119.249 18.6401ZM118.499 31.2101C117.329 31.2101 116.489 30.5201 116.489 29.5301C116.489 28.3601 117.389 27.5801 118.649 27.5801H121.709V27.7901C121.709 29.7101 120.539 31.2101 118.499 31.2101Z" fill="#EAEAEB"/>
<path d="M127.451 34.0001H131.621V12.3101H127.451V34.0001Z" fill="#EAEAEB"/>
<path d="M133.836 34.0001H142.416C146.856 34.0001 149.916 31.7201 149.916 27.7301C149.916 24.9701 148.296 23.2901 146.376 22.5401C147.606 21.8801 148.836 20.3801 148.836 18.4001C148.836 14.8901 145.986 13.0001 142.176 13.0001H133.836V34.0001ZM138.276 21.0101V16.5701H141.756C143.766 16.5701 144.666 17.3801 144.666 18.7901C144.666 20.2001 143.766 21.0101 141.846 21.0101H138.276ZM138.276 30.1001V24.8201H142.026C144.516 24.8201 145.626 25.7801 145.626 27.4901C145.626 29.2001 144.516 30.1001 142.026 30.1001H138.276Z" fill="#EAEAEB"/>
<path d="M157.171 18.6401C153.031 18.6401 150.571 21.0701 150.391 24.1001H154.111C154.171 22.8401 155.101 21.7001 156.931 21.7001C158.641 21.7001 159.631 22.5701 159.631 23.8301C159.631 24.4601 159.241 24.9401 158.491 24.9401H155.941C152.641 24.9401 150.421 26.7401 150.421 29.7101C150.421 32.2901 152.431 34.2401 155.371 34.2401C157.441 34.2401 159.121 33.3101 159.631 31.9001V34.0001H163.771V24.2801C163.771 20.8601 160.981 18.6401 157.171 18.6401ZM156.421 31.2101C155.251 31.2101 154.411 30.5201 154.411 29.5301C154.411 28.3601 155.311 27.5801 156.571 27.5801H159.631V27.7901C159.631 29.7101 158.461 31.2101 156.421 31.2101Z" fill="#EAEAEB"/>
<path d="M165.133 34.0001H169.333V25.7201C169.333 23.7701 170.623 22.3601 172.453 22.3601C174.193 22.3601 175.363 23.6801 175.363 25.5101V34.0001H179.563V24.5801C179.563 21.1001 177.343 18.6401 173.923 18.6401C171.853 18.6401 170.173 19.5101 169.333 20.9801V18.8801H165.133V34.0001Z" fill="#EAEAEB"/>
<path d="M191.533 34.0001H196.573L190.063 24.8201L196.093 18.8801H190.813L185.563 24.0401V12.3101H181.363V34.0001H185.563V29.2601L187.243 27.6101L191.533 34.0001Z" fill="#EAEAEB"/>
</svg>
