<svg width="198" height="48" viewBox="0 0 198 48" fill="none" xmlns="http://www.w3.org/2000/svg">
<path opacity="0.8" d="M36.3068 11.1631C35.8745 10.7309 35.4423 10.2986 35.0101 9.86642C33.7134 8.48331 32.3303 7.10021 30.6015 6.23577C28.6132 5.19844 26.4522 5.45777 24.2911 5.45777C21.0062 5.45777 12.794 5.45777 7.95312 5.45777L11.238 9.86642C17.2026 9.86642 26.5386 9.86642 30.8608 9.86642C32.6761 9.86642 34.2321 10.2122 35.7017 11.1631C35.961 11.2495 36.2203 11.2495 36.3068 11.1631Z" fill="#EAEAEB"/>
<path opacity="0.9" d="M39.9367 18.2517C39.5045 17.8195 39.0723 17.3873 38.6401 16.955C37.3434 15.5719 35.9603 14.1888 34.2315 13.3244C32.2432 12.2871 30.0821 12.5464 27.921 12.5464C25.0684 12.5464 18.2393 12.5464 13.3984 12.5464L16.6833 16.955C22.5615 16.955 30.6008 16.955 34.5772 16.955C36.3925 16.955 37.9485 17.3008 39.4181 18.2517C39.591 18.3381 39.7639 18.3381 39.9367 18.2517Z" fill="#EAEAEB"/>
<path d="M44 25.167C43.5677 24.7348 43.1355 24.3025 42.7033 23.8703C41.4066 22.4872 40.0235 21.1041 38.2947 20.2397C36.3065 19.2023 34.1453 19.4617 31.9842 19.4617C29.3045 19.4617 23.4263 19.4617 18.6719 19.4617L21.9567 23.8703C27.662 23.8703 34.9234 23.8703 38.554 23.8703C40.3693 23.8703 41.9253 24.2161 43.3949 25.167C43.6542 25.2534 43.8271 25.3399 44 25.167Z" fill="#EAEAEB"/>
<path opacity="0.8" d="M7.60742 36.8368C8.03964 37.269 8.47186 37.7012 8.90408 38.1335C10.2007 39.5166 11.5838 40.8997 13.3127 41.7641C15.3009 42.8014 17.462 42.5421 19.6231 42.5421H35.9611L32.6762 38.1335C26.7115 38.1335 17.3756 38.1335 13.0534 38.1335C11.2381 38.1335 9.68208 37.7877 8.21253 36.8368C7.9532 36.7504 7.78031 36.7504 7.60742 36.8368Z" fill="#EAEAEB"/>
<path opacity="0.9" d="M3.97656 29.7487C4.40878 30.1809 4.841 30.6131 5.27322 31.0453C6.56988 32.4284 7.95298 33.8116 9.68186 34.676C11.6701 35.7133 13.8312 35.454 15.9923 35.454H30.5149L27.23 31.0453C21.3518 31.0453 13.3125 31.0453 9.33609 31.0453C7.52076 31.0453 5.96477 30.6996 4.49522 29.7487C4.32233 29.6622 4.14945 29.6622 3.97656 29.7487Z" fill="#EAEAEB"/>
<path d="M0 22.7465C0.43222 23.1787 0.86444 23.6109 1.29666 24.0431C2.59332 25.4262 3.97643 26.8094 5.70531 27.6738C7.69352 28.7111 9.85461 28.4518 12.0157 28.4518H25.3281L22.0432 24.0431C16.3379 24.0431 9.07662 24.0431 5.44598 24.0431C3.63065 24.0431 2.07465 23.6974 0.605106 22.7465C0.345773 22.66 0.172888 22.66 0 22.7465Z" fill="#EAEAEB"/>
<path d="M53.9316 14.0081V34.0001H58.3276V25.7401H66.6996V22.3241H58.3276V17.7041H67.9876V14.0081H53.9316Z" fill="#EAEAEB"/>
<path d="M79.0133 25.2081H72.5453C72.564 24.9281 72.62 24.6107 72.7133 24.2561C72.8253 23.9014 73.0026 23.5654 73.2453 23.2481C73.5066 22.9307 73.8426 22.6694 74.2533 22.4641C74.6826 22.2401 75.2146 22.1281 75.8493 22.1281C76.82 22.1281 77.5386 22.3894 78.0053 22.9121C78.4906 23.4347 78.8266 24.2001 79.0133 25.2081ZM72.5453 27.7281H82.9893C83.064 26.6081 82.9706 25.5347 82.7093 24.5081C82.448 23.4814 82.0186 22.5667 81.4213 21.7641C80.8426 20.9614 80.096 20.3267 79.1813 19.8601C78.2666 19.3747 77.1933 19.1321 75.9613 19.1321C74.86 19.1321 73.852 19.3281 72.9373 19.7201C72.0413 20.1121 71.2666 20.6534 70.6133 21.3441C69.96 22.0161 69.456 22.8187 69.1013 23.7521C68.7466 24.6854 68.5693 25.6934 68.5693 26.7761C68.5693 27.8961 68.7373 28.9227 69.0733 29.8561C69.428 30.7894 69.9226 31.5921 70.5573 32.2641C71.192 32.9361 71.9666 33.4587 72.8813 33.8321C73.796 34.1867 74.8226 34.3641 75.9613 34.3641C77.604 34.3641 79.004 33.9907 80.1613 33.2441C81.3186 32.4974 82.1773 31.2561 82.7373 29.5201H79.2373C79.1066 29.9681 78.752 30.3974 78.1733 30.8081C77.5946 31.2001 76.904 31.3961 76.1013 31.3961C74.9813 31.3961 74.1226 31.1067 73.5253 30.5281C72.928 29.9494 72.6013 29.0161 72.5453 27.7281Z" fill="#EAEAEB"/>
<path d="M84.3394 23.9761C84.3954 23.0427 84.6288 22.2681 85.0394 21.6521C85.4501 21.0361 85.9728 20.5414 86.6074 20.1681C87.2421 19.7947 87.9514 19.5334 88.7354 19.3841C89.5381 19.2161 90.3408 19.1321 91.1434 19.1321C91.8714 19.1321 92.6088 19.1881 93.3554 19.3001C94.1021 19.3934 94.7834 19.5894 95.3994 19.8881C96.0154 20.1867 96.5194 20.6067 96.9114 21.1481C97.3034 21.6707 97.4994 22.3707 97.4994 23.2481V30.7801C97.4994 31.4334 97.5368 32.0587 97.6114 32.6561C97.6861 33.2534 97.8168 33.7014 98.0034 34.0001H93.9714C93.8968 33.7761 93.8314 33.5521 93.7754 33.3281C93.7381 33.0854 93.7101 32.8427 93.6914 32.6001C93.0568 33.2534 92.3101 33.7107 91.4514 33.9721C90.5928 34.2334 89.7154 34.3641 88.8194 34.3641C88.1288 34.3641 87.4848 34.2801 86.8874 34.1121C86.2901 33.9441 85.7674 33.6827 85.3194 33.3281C84.8714 32.9734 84.5168 32.5254 84.2554 31.9841C84.0128 31.4427 83.8914 30.7987 83.8914 30.0521C83.8914 29.2307 84.0314 28.5587 84.3114 28.0361C84.6101 27.4947 84.9834 27.0654 85.4314 26.7481C85.8981 26.4307 86.4208 26.1974 86.9994 26.0481C87.5968 25.8801 88.1941 25.7494 88.7914 25.6561C89.3888 25.5627 89.9768 25.4881 90.5554 25.4321C91.1341 25.3761 91.6474 25.2921 92.0954 25.1801C92.5434 25.0681 92.8981 24.9094 93.1594 24.7041C93.4208 24.4801 93.5421 24.1627 93.5234 23.7521C93.5234 23.3227 93.4488 22.9867 93.2994 22.7441C93.1688 22.4827 92.9821 22.2867 92.7394 22.1561C92.5154 22.0067 92.2448 21.9134 91.9274 21.8761C91.6288 21.8201 91.3021 21.7921 90.9474 21.7921C90.1634 21.7921 89.5474 21.9601 89.0994 22.2961C88.6514 22.6321 88.3901 23.1921 88.3154 23.9761H84.3394ZM93.5234 26.9161C93.3554 27.0654 93.1408 27.1867 92.8794 27.2801C92.6368 27.3547 92.3661 27.4201 92.0674 27.4761C91.7874 27.5321 91.4888 27.5787 91.1714 27.6161C90.8541 27.6534 90.5368 27.7001 90.2194 27.7561C89.9208 27.8121 89.6221 27.8867 89.3234 27.9801C89.0434 28.0734 88.7914 28.2041 88.5674 28.3721C88.3621 28.5214 88.1941 28.7174 88.0634 28.9601C87.9328 29.2027 87.8674 29.5107 87.8674 29.8841C87.8674 30.2387 87.9328 30.5374 88.0634 30.7801C88.1941 31.0227 88.3714 31.2187 88.5954 31.3681C88.8194 31.4987 89.0808 31.5921 89.3794 31.6481C89.6781 31.7041 89.9861 31.7321 90.3034 31.7321C91.0874 31.7321 91.6941 31.6014 92.1234 31.3401C92.5528 31.0787 92.8701 30.7707 93.0754 30.4161C93.2808 30.0427 93.4021 29.6694 93.4394 29.2961C93.4954 28.9227 93.5234 28.6241 93.5234 28.4001V26.9161Z" fill="#EAEAEB"/>
<path d="M104.786 19.5241V15.1841H100.81V19.5241H98.4015V22.1841H100.81V30.7241C100.81 31.4521 100.931 32.0401 101.174 32.4881C101.416 32.9361 101.743 33.2814 102.154 33.5241C102.583 33.7667 103.068 33.9254 103.61 34.0001C104.17 34.0934 104.758 34.1401 105.374 34.1401C105.766 34.1401 106.167 34.1307 106.578 34.1121C106.988 34.0934 107.362 34.0561 107.698 34.0001V30.9201C107.511 30.9574 107.315 30.9854 107.11 31.0041C106.904 31.0227 106.69 31.0321 106.466 31.0321C105.794 31.0321 105.346 30.9201 105.122 30.6961C104.898 30.4721 104.786 30.0241 104.786 29.3521V22.1841H107.698V19.5241H104.786Z" fill="#EAEAEB"/>
<path d="M108.749 14.0081V34.0001H112.725V26.4121C112.725 24.9374 112.968 23.8827 113.453 23.2481C113.939 22.5947 114.723 22.2681 115.805 22.2681C116.757 22.2681 117.42 22.5667 117.793 23.1641C118.167 23.7427 118.353 24.6294 118.353 25.8241V34.0001H122.329V25.0961C122.329 24.2001 122.245 23.3881 122.077 22.6601C121.928 21.9134 121.657 21.2881 121.265 20.7841C120.873 20.2614 120.332 19.8601 119.641 19.5801C118.969 19.2814 118.101 19.1321 117.037 19.1321C116.291 19.1321 115.525 19.3281 114.741 19.7201C113.957 20.0934 113.313 20.7001 112.809 21.5401H112.725V14.0081H108.749Z" fill="#EAEAEB"/>
<path d="M134.251 25.2081H127.783C127.802 24.9281 127.858 24.6107 127.951 24.2561C128.063 23.9014 128.24 23.5654 128.483 23.2481C128.744 22.9307 129.08 22.6694 129.491 22.4641C129.92 22.2401 130.452 22.1281 131.087 22.1281C132.058 22.1281 132.776 22.3894 133.243 22.9121C133.728 23.4347 134.064 24.2001 134.251 25.2081ZM127.783 27.7281H138.227C138.302 26.6081 138.208 25.5347 137.947 24.5081C137.686 23.4814 137.256 22.5667 136.659 21.7641C136.08 20.9614 135.334 20.3267 134.419 19.8601C133.504 19.3747 132.431 19.1321 131.199 19.1321C130.098 19.1321 129.09 19.3281 128.175 19.7201C127.279 20.1121 126.504 20.6534 125.851 21.3441C125.198 22.0161 124.694 22.8187 124.339 23.7521C123.984 24.6854 123.807 25.6934 123.807 26.7761C123.807 27.8961 123.975 28.9227 124.311 29.8561C124.666 30.7894 125.16 31.5921 125.795 32.2641C126.43 32.9361 127.204 33.4587 128.119 33.8321C129.034 34.1867 130.06 34.3641 131.199 34.3641C132.842 34.3641 134.242 33.9907 135.399 33.2441C136.556 32.4974 137.415 31.2561 137.975 29.5201H134.475C134.344 29.9681 133.99 30.3974 133.411 30.8081C132.832 31.2001 132.142 31.3961 131.339 31.3961C130.219 31.3961 129.36 31.1067 128.763 30.5281C128.166 29.9494 127.839 29.0161 127.783 27.7281Z" fill="#EAEAEB"/>
<path d="M139.745 19.5241V34.0001H143.721V27.4761C143.721 26.8227 143.786 26.2161 143.917 25.6561C144.048 25.0961 144.262 24.6107 144.561 24.2001C144.878 23.7707 145.289 23.4347 145.793 23.1921C146.297 22.9494 146.913 22.8281 147.641 22.8281C147.884 22.8281 148.136 22.8467 148.397 22.8841C148.658 22.9027 148.882 22.9307 149.069 22.9681V19.2721C148.752 19.1787 148.462 19.1321 148.201 19.1321C147.697 19.1321 147.212 19.2067 146.745 19.3561C146.278 19.5054 145.84 19.7201 145.429 20.0001C145.018 20.2614 144.654 20.5881 144.337 20.9801C144.02 21.3534 143.768 21.7641 143.581 22.2121H143.525V19.5241H139.745Z" fill="#EAEAEB"/>
<path d="M154.604 30.3041V17.7041H157.74C158.823 17.7041 159.728 17.8627 160.456 18.1801C161.203 18.4787 161.8 18.9174 162.248 19.4961C162.696 20.0747 163.013 20.7747 163.2 21.5961C163.405 22.3987 163.508 23.3041 163.508 24.3121C163.508 25.4134 163.368 26.3467 163.088 27.1121C162.808 27.8774 162.435 28.5027 161.968 28.9881C161.501 29.4547 160.969 29.7907 160.372 29.9961C159.775 30.2014 159.159 30.3041 158.524 30.3041H154.604ZM150.208 14.0081V34.0001H158.832C160.363 34.0001 161.688 33.7481 162.808 33.2441C163.947 32.7214 164.889 32.0121 165.636 31.1161C166.401 30.2201 166.971 29.1561 167.344 27.9241C167.717 26.6921 167.904 25.3481 167.904 23.8921C167.904 22.2307 167.671 20.7841 167.204 19.5521C166.756 18.3201 166.121 17.2934 165.3 16.4721C164.497 15.6507 163.536 15.0347 162.416 14.6241C161.315 14.2134 160.12 14.0081 158.832 14.0081H150.208Z" fill="#EAEAEB"/>
<path d="M179.446 25.2081H172.978C172.996 24.9281 173.052 24.6107 173.146 24.2561C173.258 23.9014 173.435 23.5654 173.678 23.2481C173.939 22.9307 174.275 22.6694 174.686 22.4641C175.115 22.2401 175.647 22.1281 176.282 22.1281C177.252 22.1281 177.971 22.3894 178.438 22.9121C178.923 23.4347 179.259 24.2001 179.446 25.2081ZM172.978 27.7281H183.422C183.496 26.6081 183.403 25.5347 183.142 24.5081C182.88 23.4814 182.451 22.5667 181.854 21.7641C181.275 20.9614 180.528 20.3267 179.614 19.8601C178.699 19.3747 177.626 19.1321 176.394 19.1321C175.292 19.1321 174.284 19.3281 173.37 19.7201C172.474 20.1121 171.699 20.6534 171.046 21.3441C170.392 22.0161 169.888 22.8187 169.534 23.7521C169.179 24.6854 169.002 25.6934 169.002 26.7761C169.002 27.8961 169.17 28.9227 169.506 29.8561C169.86 30.7894 170.355 31.5921 170.99 32.2641C171.624 32.9361 172.399 33.4587 173.314 33.8321C174.228 34.1867 175.255 34.3641 176.394 34.3641C178.036 34.3641 179.436 33.9907 180.594 33.2441C181.751 32.4974 182.61 31.2561 183.17 29.5201H179.67C179.539 29.9681 179.184 30.3974 178.606 30.8081C178.027 31.2001 177.336 31.3961 176.534 31.3961C175.414 31.3961 174.555 31.1067 173.958 30.5281C173.36 29.9494 173.034 29.0161 172.978 27.7281Z" fill="#EAEAEB"/>
<path d="M192.948 34.0001L197.848 19.5241H193.9L190.848 29.4081H190.792L187.74 19.5241H183.568L188.524 34.0001H192.948Z" fill="#EAEAEB"/>
</svg>
