<svg width="167" height="48" viewBox="0 0 167 48" fill="none" xmlns="http://www.w3.org/2000/svg">
<circle cx="22.5" cy="24.2499" r="20.5" stroke="#EAEAEB" stroke-width="3"/>
<path d="M30.632 32.3817C26.4926 36.5211 21.8031 39.2233 17.6267 40.2972C13.4126 41.3808 10.016 40.7571 8.00461 38.7456C5.9932 36.7342 5.36941 33.3376 6.45304 29.1235C7.52696 24.9472 10.2292 20.2576 14.3686 16.1182C18.508 11.9788 23.1975 9.27662 27.3739 8.2027C31.588 7.11907 34.9846 7.74286 36.996 9.75427C39.0074 11.7657 39.6312 15.1623 38.5476 19.3764C37.4736 23.5528 34.7714 28.2423 30.632 32.3817Z" stroke="#EAEAEB" stroke-width="3"/>
<path d="M30.6314 16.1182C34.7708 20.2576 37.473 24.9471 38.547 29.1235C39.6306 33.3376 39.0068 36.7342 36.9954 38.7456C34.984 40.757 31.5874 41.3808 27.3733 40.2972C23.1969 39.2233 18.5074 36.5211 14.368 32.3817C10.2286 28.2423 7.52638 23.5528 6.45245 19.3764C5.36883 15.1623 5.99262 11.7657 8.00402 9.75426C10.0154 7.74285 13.4121 7.11906 17.6262 8.20269C21.8025 9.27661 26.492 11.9788 30.6314 16.1182Z" stroke="#EAEAEB" stroke-width="3"/>
<path d="M63.3497 34.2401C68.0597 34.2401 71.2397 31.7801 71.2397 27.8501C71.2397 19.5401 60.1997 23.0801 60.1997 18.7001C60.1997 17.4701 61.3097 16.6301 63.0797 16.6301C65.0897 16.6301 66.3497 17.7101 66.4997 19.3601H70.7897C70.6697 15.3701 67.6097 12.7601 63.0797 12.7601C58.8197 12.7601 55.8197 15.2201 55.8197 18.7001C55.8197 26.9501 66.7097 23.8001 66.7097 27.9101C66.7097 29.5001 65.3597 30.3401 63.3497 30.3401C61.1297 30.3401 59.7197 28.9901 59.5397 26.8601H55.2197C55.3997 31.3301 58.5797 34.2401 63.3497 34.2401Z" fill="#EAEAEB"/>
<path d="M72.26 40.1201H76.43V32.6501C77.24 33.6701 78.71 34.2401 80.42 34.2401C84.77 34.2401 87.71 31.1501 87.71 26.4401C87.71 21.7301 85.01 18.6401 80.78 18.6401C78.83 18.6401 77.33 19.3601 76.43 20.5301V18.8801H72.26V40.1201ZM79.91 30.6401C77.66 30.6401 76.19 28.9601 76.19 26.4401C76.19 23.8901 77.66 22.2101 79.91 22.2101C82.1 22.2101 83.6 23.8901 83.6 26.4401C83.6 28.9601 82.1 30.6401 79.91 30.6401Z" fill="#EAEAEB"/>
<path d="M88.7189 34.0001H92.8889V25.7201C92.8889 23.7701 94.1789 22.3601 96.0089 22.3601C97.7489 22.3601 98.9489 23.6801 98.9489 25.5101V34.0001H103.119V24.5801C103.119 21.1001 100.899 18.6401 97.5089 18.6401C95.4089 18.6401 93.7589 19.5101 92.8889 20.9801V12.3101H88.7189V34.0001Z" fill="#EAEAEB"/>
<path d="M114.784 28.8701C114.454 30.1601 113.344 30.8201 111.664 30.8201C109.564 30.8201 108.214 29.5001 107.914 27.3701H118.774C118.804 27.0401 118.834 26.5901 118.834 26.0201C118.834 22.5701 116.704 18.6401 111.364 18.6401C106.234 18.6401 103.894 22.5701 103.894 26.4101C103.894 30.2201 106.534 34.2401 111.664 34.2401C115.384 34.2401 118.264 32.1401 118.864 28.8701H114.784ZM111.364 21.7001C113.374 21.7001 114.544 23.0501 114.664 24.7301H107.974C108.334 22.6301 109.474 21.7001 111.364 21.7001Z" fill="#EAEAEB"/>
<path d="M129.771 22.3601V18.8801H127.619C125.789 18.8801 124.649 19.5101 123.839 21.4001V18.8801H119.639V34.0001H123.839V26.6501C123.839 24.0701 124.769 22.3601 126.839 22.3601H129.771Z" fill="#EAEAEB"/>
<path d="M144.171 18.8801H139.971V27.1601C139.971 29.0801 138.681 30.5201 136.851 30.5201C135.141 30.5201 133.941 29.2001 133.941 27.3701V18.8801H129.771V28.3001C129.771 31.7501 131.991 34.2401 135.381 34.2401C137.451 34.2401 139.131 33.3401 139.971 31.9001V34.0001H144.171V18.8801Z" fill="#EAEAEB"/>
<path d="M145.971 34.0001H150.141V12.3101H145.971V34.0001Z" fill="#EAEAEB"/>
<path d="M162.046 28.8701C161.716 30.1601 160.606 30.8201 158.926 30.8201C156.826 30.8201 155.476 29.5001 155.176 27.3701H166.036C166.066 27.0401 166.096 26.5901 166.096 26.0201C166.096 22.5701 163.966 18.6401 158.626 18.6401C153.496 18.6401 151.156 22.5701 151.156 26.4101C151.156 30.2201 153.796 34.2401 158.926 34.2401C162.646 34.2401 165.526 32.1401 166.126 28.8701H162.046ZM158.626 21.7001C160.636 21.7001 161.806 23.0501 161.926 24.7301H155.236C155.596 22.6301 156.736 21.7001 158.626 21.7001Z" fill="#EAEAEB"/>
</svg>
