<svg width="32" height="32" viewBox="0 0 32 32" fill="none" xmlns="http://www.w3.org/2000/svg">
<path d="M3.33321 11.8135L15.3332 18.7468C15.5359 18.8639 15.7658 18.9255 15.9999 18.9255C16.2339 18.9255 16.4639 18.8639 16.6665 18.7468L28.6665 11.8135C28.8681 11.6972 29.0356 11.5301 29.1526 11.3289C29.2695 11.1278 29.3318 10.8995 29.3332 10.6668C29.3341 10.4319 29.273 10.2009 29.1559 9.99716C29.0388 9.79346 28.87 9.62431 28.6665 9.50684L16.6665 2.58684C16.4639 2.46981 16.2339 2.4082 15.9999 2.4082C15.7658 2.4082 15.5359 2.46981 15.3332 2.58684L3.33321 9.50684C3.12974 9.62431 2.96092 9.79346 2.84385 9.99716C2.72678 10.2009 2.66561 10.4319 2.66654 10.6668C2.66795 10.8995 2.73022 11.1278 2.84718 11.3289C2.96413 11.5301 3.13169 11.6972 3.33321 11.8135ZM15.9999 5.3335L25.3332 10.6668L15.9999 16.0002L6.66654 10.6668L15.9999 5.3335ZM27.3332 14.8935L15.9999 21.3335L4.66654 14.8402C4.51437 14.752 4.34625 14.6948 4.17188 14.6719C3.99751 14.649 3.82033 14.6608 3.65054 14.7067C3.48075 14.7525 3.32172 14.8315 3.18259 14.9391C3.04346 15.0467 2.92698 15.1807 2.83988 15.3335C2.66605 15.6397 2.62036 16.0021 2.71278 16.3419C2.8052 16.6816 3.02824 16.9709 3.33321 17.1468L15.3332 24.0802C15.5359 24.1972 15.7658 24.2588 15.9999 24.2588C16.2339 24.2588 16.4639 24.1972 16.6665 24.0802L28.6665 17.1468C28.9715 16.9709 29.1946 16.6816 29.287 16.3419C29.3794 16.0021 29.3337 15.6397 29.1599 15.3335C29.0728 15.1807 28.9563 15.0467 28.8172 14.9391C28.678 14.8315 28.519 14.7525 28.3492 14.7067C28.1794 14.6608 28.0022 14.649 27.8279 14.6719C27.6535 14.6948 27.4854 14.752 27.3332 14.8402V14.8935ZM27.3332 20.2268L15.9999 26.6668L4.66654 20.1735C4.51437 20.0853 4.34625 20.0282 4.17188 20.0053C3.99751 19.9823 3.82033 19.9942 3.65054 20.04C3.48075 20.0859 3.32172 20.1649 3.18259 20.2724C3.04346 20.38 2.92698 20.5141 2.83988 20.6668C2.66605 20.973 2.62036 21.3355 2.71278 21.6752C2.8052 22.0149 3.02824 22.3043 3.33321 22.4802L15.3332 29.4135C15.5359 29.5305 15.7658 29.5921 15.9999 29.5921C16.2339 29.5921 16.4639 29.5305 16.6665 29.4135L28.6665 22.4802C28.9715 22.3043 29.1946 22.0149 29.287 21.6752C29.3794 21.3355 29.3337 20.973 29.1599 20.6668C29.0728 20.5141 28.9563 20.38 28.8172 20.2724C28.678 20.1649 28.519 20.0859 28.3492 20.04C28.1794 19.9942 28.0022 19.9823 27.8279 20.0053C27.6535 20.0282 27.4854 20.0853 27.3332 20.1735V20.2268Z" fill="#F7F7F7"/>
</svg>
