<svg width="32" height="32" viewBox="0 0 32 32" fill="none" xmlns="http://www.w3.org/2000/svg">
<path d="M21.3337 2.6665H10.667C9.60613 2.6665 8.58871 3.08793 7.83857 3.83808C7.08842 4.58822 6.66699 5.60564 6.66699 6.6665V25.3332C6.66699 26.394 7.08842 27.4115 7.83857 28.1616C8.58871 28.9117 9.60613 29.3332 10.667 29.3332H21.3337C22.3945 29.3332 23.4119 28.9117 24.1621 28.1616C24.9122 27.4115 25.3337 26.394 25.3337 25.3332V6.6665C25.3337 5.60564 24.9122 4.58822 24.1621 3.83808C23.4119 3.08793 22.3945 2.6665 21.3337 2.6665ZM22.667 25.3332C22.667 25.6868 22.5265 26.0259 22.2765 26.276C22.0264 26.526 21.6873 26.6665 21.3337 26.6665H10.667C10.3134 26.6665 9.97423 26.526 9.72418 26.276C9.47413 26.0259 9.33366 25.6868 9.33366 25.3332V23.9998H22.667V25.3332ZM22.667 21.3332H9.33366V6.6665C9.33366 6.31288 9.47413 5.97374 9.72418 5.7237C9.97423 5.47365 10.3134 5.33317 10.667 5.33317H21.3337C21.6873 5.33317 22.0264 5.47365 22.2765 5.7237C22.5265 5.97374 22.667 6.31288 22.667 6.6665V21.3332Z" fill="#F7F7F7"/>
</svg>
