<svg width="29" height="22" viewBox="0 0 29 22" fill="none" xmlns="http://www.w3.org/2000/svg">
<path d="M6.93788 8.63795C6.63126 8.63795 6.33701 8.6847 6.04413 8.72732C6.13901 8.40832 6.23663 8.08382 6.39338 7.79232C6.55013 7.36882 6.79488 7.0017 7.03826 6.63182C7.24176 6.2317 7.60063 5.96082 7.86463 5.61845C8.14101 5.2857 8.51776 5.06432 8.81613 4.78795C9.10901 4.4992 9.49263 4.35482 9.79788 4.15132C10.1169 3.96845 10.3946 3.76632 10.6916 3.67007L11.4328 3.36482L12.0845 3.09395L11.4176 0.429199L10.5968 0.627199C10.3341 0.693199 10.0138 0.770199 9.64938 0.862324C9.27676 0.931074 8.87938 1.11945 8.43663 1.29132C7.99938 1.48657 7.49338 1.61857 7.02313 1.93207C6.55013 2.23182 6.00426 2.48207 5.52301 2.88357C5.05688 3.29745 4.49451 3.65632 4.07926 4.18295C3.62551 4.6752 3.17726 5.1922 2.82938 5.7807C2.42651 6.3417 2.15288 6.9577 1.86413 7.56682C1.60288 8.17595 1.39251 8.79882 1.22063 9.40382C0.894758 10.6166 0.749008 11.7688 0.692633 12.7547C0.645883 13.7419 0.673383 14.5628 0.731133 15.1568C0.751758 15.4373 0.790258 15.7096 0.817758 15.8979L0.852133 16.1289L0.887883 16.1207C1.13244 17.2631 1.69543 18.3129 2.51171 19.1487C3.32799 19.9845 4.36421 20.5721 5.50051 20.8436C6.63681 21.1151 7.82675 21.0593 8.93267 20.6827C10.0386 20.3062 11.0153 19.6242 11.7498 18.7157C12.4844 17.8072 12.9467 16.7094 13.0833 15.5491C13.22 14.3888 13.0253 13.2136 12.5219 12.1594C12.0185 11.1051 11.227 10.2149 10.2388 9.59171C9.25059 8.96854 8.10616 8.63787 6.93788 8.63795ZM22.0629 8.63795C21.7563 8.63795 21.462 8.6847 21.1691 8.72732C21.264 8.40832 21.3616 8.08382 21.5184 7.79232C21.6751 7.36882 21.9199 7.0017 22.1633 6.63182C22.3668 6.2317 22.7256 5.96082 22.9896 5.61845C23.266 5.2857 23.6428 5.06432 23.9411 4.78795C24.234 4.4992 24.6176 4.35482 24.9229 4.15132C25.2419 3.96845 25.5196 3.76632 25.8166 3.67007L26.5578 3.36482L27.2095 3.09395L26.5426 0.429199L25.7218 0.627199C25.4591 0.693199 25.1388 0.770199 24.7744 0.862324C24.4018 0.931074 24.0044 1.11945 23.5616 1.29132C23.1258 1.48795 22.6184 1.61857 22.1481 1.93345C21.6751 2.2332 21.1293 2.48345 20.648 2.88495C20.1819 3.29882 19.6195 3.6577 19.2043 4.18295C18.7505 4.6752 18.3023 5.1922 17.9544 5.7807C17.5515 6.3417 17.2779 6.9577 16.9891 7.56682C16.7279 8.17595 16.5175 8.79882 16.3456 9.40382C16.0198 10.6166 15.874 11.7688 15.8176 12.7547C15.7709 13.7419 15.7984 14.5628 15.8561 15.1568C15.8768 15.4373 15.9153 15.7096 15.9428 15.8979L15.9771 16.1289L16.0129 16.1207C16.2574 17.2631 16.8204 18.3129 17.6367 19.1487C18.453 19.9845 19.4892 20.5721 20.6255 20.8436C21.7618 21.1151 22.9517 21.0593 24.0577 20.6827C25.1636 20.3062 26.1403 19.6242 26.8748 18.7157C27.6094 17.8072 28.0717 16.7094 28.2083 15.5491C28.345 14.3888 28.1503 13.2136 27.6469 12.1594C27.1435 11.1051 26.352 10.2149 25.3638 9.59171C24.3756 8.96854 23.2312 8.63787 22.0629 8.63795Z" fill="#484847"/>
</svg>
