<svg width="24" height="24" viewBox="0 0 24 24" fill="none" xmlns="http://www.w3.org/2000/svg">
<path d="M9.33333 13.3333H1.33333C0.979711 13.3333 0.640573 13.4738 0.390524 13.7239C0.140476 13.9739 0 14.313 0 14.6667V22.6667C0 23.0203 0.140476 23.3594 0.390524 23.6095C0.640573 23.8595 0.979711 24 1.33333 24H9.33333C9.68696 24 10.0261 23.8595 10.2761 23.6095C10.5262 23.3594 10.6667 23.0203 10.6667 22.6667V14.6667C10.6667 14.313 10.5262 13.9739 10.2761 13.7239C10.0261 13.4738 9.68696 13.3333 9.33333 13.3333ZM8 21.3333H2.66667V16H8V21.3333ZM22.6667 0H14.6667C14.313 0 13.9739 0.140476 13.7239 0.390524C13.4738 0.640573 13.3333 0.979711 13.3333 1.33333V9.33333C13.3333 9.68696 13.4738 10.0261 13.7239 10.2761C13.9739 10.5262 14.313 10.6667 14.6667 10.6667H22.6667C23.0203 10.6667 23.3594 10.5262 23.6095 10.2761C23.8595 10.0261 24 9.68696 24 9.33333V1.33333C24 0.979711 23.8595 0.640573 23.6095 0.390524C23.3594 0.140476 23.0203 0 22.6667 0ZM21.3333 8H16V2.66667H21.3333V8ZM22.6667 17.3333H20V14.6667C20 14.313 19.8595 13.9739 19.6095 13.7239C19.3594 13.4738 19.0203 13.3333 18.6667 13.3333C18.313 13.3333 17.9739 13.4738 17.7239 13.7239C17.4738 13.9739 17.3333 14.313 17.3333 14.6667V17.3333H14.6667C14.313 17.3333 13.9739 17.4738 13.7239 17.7239C13.4738 17.9739 13.3333 18.313 13.3333 18.6667C13.3333 19.0203 13.4738 19.3594 13.7239 19.6095C13.9739 19.8595 14.313 20 14.6667 20H17.3333V22.6667C17.3333 23.0203 17.4738 23.3594 17.7239 23.6095C17.9739 23.8595 18.313 24 18.6667 24C19.0203 24 19.3594 23.8595 19.6095 23.6095C19.8595 23.3594 20 23.0203 20 22.6667V20H22.6667C23.0203 20 23.3594 19.8595 23.6095 19.6095C23.8595 19.3594 24 19.0203 24 18.6667C24 18.313 23.8595 17.9739 23.6095 17.7239C23.3594 17.4738 23.0203 17.3333 22.6667 17.3333ZM9.33333 0H1.33333C0.979711 0 0.640573 0.140476 0.390524 0.390524C0.140476 0.640573 0 0.979711 0 1.33333V9.33333C0 9.68696 0.140476 10.0261 0.390524 10.2761C0.640573 10.5262 0.979711 10.6667 1.33333 10.6667H9.33333C9.68696 10.6667 10.0261 10.5262 10.2761 10.2761C10.5262 10.0261 10.6667 9.68696 10.6667 9.33333V1.33333C10.6667 0.979711 10.5262 0.640573 10.2761 0.390524C10.0261 0.140476 9.68696 0 9.33333 0ZM8 8H2.66667V2.66667H8V8Z" fill="#F7F7F7"/>
</svg>
